<svg version="1.1" xmlns="http://www.w3.org/2000/svg" xmlns:xlink="http://www.w3.org/1999/xlink" width="10.69584" height="9.04959" viewBox="0,0,10.69584,9.04959"><g transform="translate(-174.65208,-315.4752)"><g data-paper-data="{&quot;isPaintingLayer&quot;:true}" fill-rule="nonzero" stroke-width="0" stroke-linecap="butt" stroke-linejoin="miter" stroke-miterlimit="10" stroke-dasharray="" stroke-dashoffset="0" style="mix-blend-mode: normal"><path d="M174.70854,320.27631c0,0 -0.30268,-4.0778 1.32502,-4.70015c1.47778,-0.56503 5.93819,1.40194 7.07425,1.93626c1.075,0.50561 2.18407,1.44129 2.23777,2.34053c0.06119,1.02474 -1.08371,2.02044 -2.31614,2.60009c-1.1225,0.52795 -5.42715,2.57162 -6.88071,1.95798c-1.6221,-0.68479 -1.44018,-4.13471 -1.44018,-4.13471z" fill="#ffffff" stroke="#000000"/><path d="M174.67301,320.25994c0,0 -0.28476,-3.83624 1.24653,-4.42172c1.39024,-0.53156 5.58643,1.31888 6.65519,1.82156c1.01132,0.47566 2.05468,1.35592 2.1052,2.20189c0.05757,0.96404 -1.01951,1.90075 -2.17894,2.44607c-1.05601,0.49668 -5.10566,2.41929 -6.47311,1.84199c-1.526,-0.64423 -1.35487,-3.88978 -1.35487,-3.88978z" fill="#ff0000" stroke="#000000"/><path d="M179.68032,317.59375c1.82681,0 3.95741,2.34537 3.95741,2.34537c0,0 -2.1306,2.46713 -3.95741,2.46713c-0.69678,0 -2.50072,0.39993 -3.29055,-0.03315c-1.28093,-0.70236 -1.44328,-2.37309 -1.44328,-2.37309c0,0 0.28078,-1.66182 1.46096,-2.34239c0.85165,-0.49111 2.50715,-0.06385 3.27286,-0.06385z" fill="#ffffff" stroke="none"/></g></g></svg>