<svg version="1.1" xmlns="http://www.w3.org/2000/svg" xmlns:xlink="http://www.w3.org/1999/xlink" width="27.53334" height="27.53334" viewBox="0,0,27.53334,27.53334"><g transform="translate(-166.23333,-306.23333)"><g data-paper-data="{&quot;isPaintingLayer&quot;:true}" fill-rule="nonzero" stroke-linejoin="miter" stroke-miterlimit="10" stroke-dasharray="" stroke-dashoffset="0" style="mix-blend-mode: normal"><path d="M166.73334,330.17613c0,-5.82591 0,-18.1107 0,-21.03069c0,-1.22174 1.84674,-2.41211 3.54281,-2.41211c3.1336,0 13.81512,0 19.44772,0c2.13363,0 3.5428,1.40426 3.5428,2.78902c0,2.99984 0,14.63399 0,20.42765c0,2.00972 -1.31809,3.31667 -2.63826,3.31667c-2.98134,0 -14.94326,0 -20.72917,0c-1.92465,0 -3.16591,-1.20811 -3.16591,-3.09053z" fill="#cdcdcd" stroke="#000000" stroke-width="1" stroke-linecap="butt"/><path d="M172.65058,319.99999c0,-4.05898 3.29045,-7.34943 7.34943,-7.34943c4.05898,0 7.34943,3.29045 7.34943,7.34943c0,4.05898 -3.29045,7.34943 -7.34943,7.34943c-4.05898,0 -7.34943,-3.29045 -7.34943,-7.34943z" fill="none" stroke="#ffffff" stroke-width="1.5" stroke-linecap="butt"/><path d="M180.00001,328.21629v2.56287" fill="none" stroke="#ffffff" stroke-width="1.5" stroke-linecap="round"/><path d="M180.00001,309.29621v2.56287" fill="none" stroke="#ffffff" stroke-width="1.5" stroke-linecap="round"/><path d="M190.55305,319.99999h-2.56288" fill="none" stroke="#ffffff" stroke-width="1.5" stroke-linecap="round"/><path d="M172.08523,319.99999h-2.56287" fill="none" stroke="#ffffff" stroke-width="1.5" stroke-linecap="round"/><path d="M172.38519,312.38517l1.81222,1.81223" fill="none" stroke="#ffffff" stroke-width="1.5" stroke-linecap="round"/><path d="M185.57647,325.65183l1.81222,1.81223" fill="none" stroke="#ffffff" stroke-width="1.5" stroke-linecap="round"/><path d="M187.23794,312.76206l-1.81223,1.81223" fill="none" stroke="#ffffff" stroke-width="1.5" stroke-linecap="round"/><path d="M172.6867,327.31331l1.81223,-1.81223" fill="none" stroke="#ffffff" stroke-width="1.5" stroke-linecap="round"/></g></g></svg>