<svg version="1.1" xmlns="http://www.w3.org/2000/svg" xmlns:xlink="http://www.w3.org/1999/xlink" width="15.23318" height="15.29536" viewBox="0,0,15.23318,15.29536"><defs><linearGradient x1="175.98466" y1="324.01536" x2="184.01537" y2="315.98465" gradientUnits="userSpaceOnUse" id="color-1"><stop offset="0" stop-color="#267dff"/><stop offset="1" stop-color="#9225ff"/></linearGradient><linearGradient x1="180.02722" y1="320.02721" x2="177.53697" y2="317.53696" gradientUnits="userSpaceOnUse" id="color-2"><stop offset="0" stop-color="#f2f7ff"/><stop offset="1" stop-color="#f2f7ff" stop-opacity="0"/></linearGradient><linearGradient x1="182.46307" y1="322.46306" x2="179.97283" y2="319.97282" gradientUnits="userSpaceOnUse" id="color-3"><stop offset="0" stop-color="#f2f7ff" stop-opacity="0"/><stop offset="1" stop-color="#f2f7ff"/></linearGradient></defs><g transform="translate(-172.36408,-312.40795)"><g data-paper-data="{&quot;isPaintingLayer&quot;:true}" fill-rule="nonzero" stroke-linecap="butt" stroke-linejoin="miter" stroke-miterlimit="10" stroke-dasharray="" stroke-dashoffset="0" style="mix-blend-mode: normal"><path d="M187.17582,320.8549c-1.80846,1.80846 -5.92007,5.92007 -6.70214,6.70214c-0.25256,0.25256 -0.78216,0.16518 -1.11028,-0.16295c-0.86799,-0.86799 -4.84322,-4.84322 -6.57916,-6.57916c-0.50056,-0.50056 -0.52824,-1.10162 -0.21828,-1.41158c0.85909,-0.85909 4.95257,-4.95257 6.6714,-6.6714c0.47017,-0.47017 1.13609,-0.38924 1.51611,-0.00922c0.92274,0.92274 4.84582,4.84582 6.51769,6.51769c0.46799,0.46799 0.4289,1.09028 -0.0953,1.61448z" fill="url(#color-1)" stroke="#000000" stroke-width="0"/><path d="M186.13192,320.73054c-1.54537,1.54537 -5.05885,5.05885 -5.72715,5.72715c-0.21582,0.21582 -0.66838,0.14116 -0.94877,-0.13924c-0.74172,-0.74172 -4.13866,-4.13866 -5.62206,-5.62206c-0.42774,-0.42774 -0.45139,-0.94137 -0.18653,-1.20623c0.73411,-0.73411 4.23209,-4.23209 5.70088,-5.70088c0.40178,-0.40178 0.97082,-0.33262 1.29555,-0.00788c0.78851,0.78851 4.14088,4.14088 5.56953,5.56953c0.39991,0.39991 0.3665,0.93168 -0.08144,1.37962z" fill="none" stroke="#f2ffff" stroke-width="1"/><path d="M182.16514,317.88928l-4.27585,4.27585l-2.49025,-2.49025l4.27585,-4.27585z" fill="url(#color-2)" stroke="none" stroke-width="0"/><path d="M184.60099,320.32514l-4.27585,4.27585l-2.49025,-2.49025l4.27585,-4.27585z" fill="url(#color-3)" stroke="none" stroke-width="0"/></g></g></svg>