<svg version="1.1" xmlns="http://www.w3.org/2000/svg" xmlns:xlink="http://www.w3.org/1999/xlink" width="11.35716" height="11.35715" viewBox="0,0,11.35716,11.35715"><defs><linearGradient x1="185.67484" y1="319.93639" x2="174.3177" y2="319.93639" gradientUnits="userSpaceOnUse" id="color-1"><stop offset="0" stop-color="#e64500"/><stop offset="1" stop-color="#e66e00"/></linearGradient></defs><g transform="translate(-174.31771,-314.25779)"><g data-paper-data="{&quot;isPaintingLayer&quot;:true}" fill-rule="nonzero" stroke-linecap="butt" stroke-linejoin="miter" stroke-miterlimit="10" stroke-dasharray="" stroke-dashoffset="0" style="mix-blend-mode: normal"><path d="M185.67484,315.46681c0,2.55755 0,8.37224 0,9.47826c0,0.35717 -0.43627,0.66987 -0.90031,0.66986c-1.22752,0 -6.84935,0 -9.30434,0c-0.7079,0 -1.15249,-0.40544 -1.15249,-0.84379c0,-1.21494 0,-7.00399 0,-9.43478c0,-0.66492 0.5281,-1.07857 1.06553,-1.07857c1.30495,0 6.85302,0 9.21741,0c0.66184,0 1.07422,0.46767 1.07422,1.209z" fill="url(#color-1)" stroke="#000000" stroke-width="0"/><path d="M184.84875,316.11703c0,2.18548 0,7.15429 0,8.09941c0,0.30522 -0.3728,0.57243 -0.76934,0.57242c-1.04895,0 -5.85295,0 -7.95079,0c-0.60492,0 -0.98483,-0.34647 -0.98483,-0.72104c0,-1.03819 0,-5.98508 0,-8.06226c0,-0.5682 0.45128,-0.92167 0.91052,-0.92166c1.11512,0 5.85609,0 7.8765,0c0.56556,0 0.91795,0.39964 0.91795,1.03313z" fill="none" stroke="#ffdb7f" stroke-width="1"/><path d="M183.518,318.29289l0,5.08695l-7.04348,0l0,-5.08695z" fill="#fffaf2" stroke="none" stroke-width="0"/></g></g></svg>