<svg version="1.1" xmlns="http://www.w3.org/2000/svg" xmlns:xlink="http://www.w3.org/1999/xlink" width="15.29537" height="15.23318" viewBox="0,0,15.29537,15.23318"><defs><linearGradient x1="183.98168" y1="315.95471" x2="175.95097" y2="323.98542" gradientUnits="userSpaceOnUse" id="color-1"><stop offset="0" stop-color="#e64500"/><stop offset="1" stop-color="#e66e00"/></linearGradient></defs><g transform="translate(-172.37427,-312.37278)"><g data-paper-data="{&quot;isPaintingLayer&quot;:true}" fill-rule="nonzero" stroke-linecap="butt" stroke-linejoin="miter" stroke-miterlimit="10" stroke-dasharray="" stroke-dashoffset="0" style="mix-blend-mode: normal"><path d="M180.82122,312.79424c1.80846,1.80846 5.92007,5.92007 6.70214,6.70214c0.25256,0.25256 0.16518,0.78216 -0.16295,1.11028c-0.86799,0.86799 -4.84322,4.84322 -6.57916,6.57916c-0.50056,0.50056 -1.10162,0.52824 -1.41158,0.21828c-0.85909,-0.85909 -4.95257,-4.95257 -6.6714,-6.6714c-0.47017,-0.47017 -0.38924,-1.13609 -0.00922,-1.51611c0.92274,-0.92274 4.84582,-4.84582 6.51769,-6.51769c0.46799,-0.46799 1.09028,-0.4289 1.61448,0.0953z" fill="url(#color-1)" stroke="#000000" stroke-width="0"/><path d="M180.69686,313.83815c1.54537,1.54537 5.05885,5.05885 5.72715,5.72715c0.21582,0.21582 0.14116,0.66838 -0.13924,0.94877c-0.74172,0.74172 -4.13866,4.13866 -5.62206,5.62206c-0.42774,0.42774 -0.94137,0.45139 -1.20623,0.18653c-0.73411,-0.73411 -4.23209,-4.23209 -5.70088,-5.70088c-0.40178,-0.40178 -0.33262,-0.97082 -0.00788,-1.29555c0.78851,-0.78851 4.14088,-4.14088 5.56953,-5.56953c0.39991,-0.39991 0.93168,-0.3665 1.37962,0.08144z" fill="none" stroke="#ffdb7f" stroke-width="1"/><path d="M181.29444,316.3177l3.59702,3.59702l-4.98049,4.98049l-3.59702,-3.59702z" fill="#fffaf2" stroke="none" stroke-width="0"/></g></g></svg>