<svg version="1.1" xmlns="http://www.w3.org/2000/svg" xmlns:xlink="http://www.w3.org/1999/xlink" width="15.29537" height="15.23318" viewBox="0,0,15.29537,15.23318"><defs><linearGradient x1="176.0146" y1="323.98166" x2="184.04531" y2="315.95094" gradientUnits="userSpaceOnUse" id="color-1"><stop offset="0" stop-color="#e64500"/><stop offset="1" stop-color="#e66e00"/></linearGradient></defs><g transform="translate(-172.32664,-312.33039)"><g data-paper-data="{&quot;isPaintingLayer&quot;:true}" fill-rule="nonzero" stroke-linecap="butt" stroke-linejoin="miter" stroke-miterlimit="10" stroke-dasharray="" stroke-dashoffset="0" style="mix-blend-mode: normal"><path d="M179.17507,327.14212c-1.80846,-1.80846 -5.92007,-5.92007 -6.70214,-6.70214c-0.25256,-0.25256 -0.16518,-0.78216 0.16295,-1.11028c0.86799,-0.86799 4.84322,-4.84322 6.57916,-6.57916c0.50056,-0.50056 1.10162,-0.52824 1.41158,-0.21828c0.85909,0.85909 4.95257,4.95257 6.6714,6.6714c0.47017,0.47017 0.38924,1.13609 0.00922,1.51611c-0.92274,0.92274 -4.84582,4.84582 -6.51769,6.51769c-0.46799,0.46799 -1.09028,0.4289 -1.61448,-0.0953z" fill="url(#color-1)" stroke="#000000" stroke-width="0"/><path d="M179.29942,326.09821c-1.54537,-1.54537 -5.05885,-5.05885 -5.72715,-5.72715c-0.21582,-0.21582 -0.14116,-0.66838 0.13924,-0.94877c0.74172,-0.74172 4.13866,-4.13866 5.62206,-5.62206c0.42774,-0.42774 0.94137,-0.45139 1.20623,-0.18653c0.73411,0.73411 4.23209,4.23209 5.70088,5.70088c0.40178,0.40178 0.33262,0.97082 0.00788,1.29555c-0.78851,0.78851 -4.14088,4.14088 -5.56953,5.56953c-0.39991,0.39991 -0.93168,0.3665 -1.37962,-0.08144z" fill="none" stroke="#ffdb7f" stroke-width="1"/><path d="M178.70185,323.61867l-3.59702,-3.59702l4.98049,-4.98049l3.59702,3.59702z" fill="#fffaf2" stroke="none" stroke-width="0"/></g></g></svg>