<svg version="1.1" xmlns="http://www.w3.org/2000/svg" xmlns:xlink="http://www.w3.org/1999/xlink" width="15.23318" height="15.29536" viewBox="0,0,15.23318,15.29536"><defs><linearGradient x1="175.98467" y1="315.98464" x2="184.01538" y2="324.01535" gradientUnits="userSpaceOnUse" id="color-1"><stop offset="0" stop-color="#e64500"/><stop offset="1" stop-color="#e66e00"/></linearGradient></defs><g transform="translate(-172.40276,-312.29668)"><g data-paper-data="{&quot;isPaintingLayer&quot;:true}" fill-rule="nonzero" stroke-linecap="butt" stroke-linejoin="miter" stroke-miterlimit="10" stroke-dasharray="" stroke-dashoffset="0" style="mix-blend-mode: normal"><path d="M172.8242,319.1451c1.80846,-1.80846 5.92007,-5.92007 6.70214,-6.70214c0.25256,-0.25256 0.78216,-0.16518 1.11028,0.16295c0.86799,0.86799 4.84322,4.84322 6.57916,6.57916c0.50056,0.50056 0.52824,1.10162 0.21828,1.41158c-0.85909,0.85909 -4.95257,4.95257 -6.6714,6.6714c-0.47017,0.47017 -1.13609,0.38924 -1.51611,0.00922c-0.92274,-0.92274 -4.84582,-4.84582 -6.51769,-6.51769c-0.46799,-0.46799 -0.4289,-1.09028 0.0953,-1.61448z" fill="url(#color-1)" stroke="#000000" stroke-width="0"/><path d="M173.86811,319.26946c1.54537,-1.54537 5.05885,-5.05885 5.72715,-5.72715c0.21582,-0.21582 0.66838,-0.14116 0.94877,0.13924c0.74172,0.74172 4.13866,4.13866 5.62206,5.62206c0.42774,0.42774 0.45139,0.94137 0.18653,1.20623c-0.73411,0.73411 -4.23209,4.23209 -5.70088,5.70088c-0.40178,0.40178 -0.97082,0.33262 -1.29555,0.00788c-0.78851,-0.78851 -4.14088,-4.14088 -5.56953,-5.56953c-0.39991,-0.39991 -0.3665,-0.93168 0.08144,-1.37962z" fill="none" stroke="#ffdb7f" stroke-width="1"/><path d="M176.34766,318.67187l3.59702,-3.59702l4.98049,4.98049l-3.59702,3.59702z" fill="#fffaf2" stroke="none" stroke-width="0"/></g></g></svg>