<svg version="1.1" xmlns="http://www.w3.org/2000/svg" xmlns:xlink="http://www.w3.org/1999/xlink" width="11.35714" height="11.35715" viewBox="0,0,11.35714,11.35715"><defs><linearGradient x1="185.67858" y1="320" x2="174.32144" y2="320" gradientUnits="userSpaceOnUse" id="color-1"><stop offset="0" stop-color="#267dff"/><stop offset="1" stop-color="#9225ff"/></linearGradient><linearGradient x1="180.00001" y1="319.96153" x2="180.00001" y2="323.48327" gradientUnits="userSpaceOnUse" id="color-2"><stop offset="0" stop-color="#f2f7ff"/><stop offset="1" stop-color="#f2f7ff" stop-opacity="0"/></linearGradient><linearGradient x1="180.00001" y1="316.51671" x2="180.00001" y2="320.03845" gradientUnits="userSpaceOnUse" id="color-3"><stop offset="0" stop-color="#f2f7ff" stop-opacity="0"/><stop offset="1" stop-color="#f2f7ff"/></linearGradient></defs><g transform="translate(-174.32144,-314.32143)"><g data-paper-data="{&quot;isPaintingLayer&quot;:true}" fill-rule="nonzero" stroke-linecap="butt" stroke-linejoin="miter" stroke-miterlimit="10" stroke-dasharray="" stroke-dashoffset="0" style="mix-blend-mode: normal"><path d="M175.53045,314.32144c2.55755,0 8.37224,0 9.47826,0c0.35717,0 0.66987,0.43627 0.66987,0.90031c0,1.22753 0,6.84935 0,9.30434c0,0.7079 -0.40544,1.15249 -0.84379,1.15249c-1.21494,0 -7.00399,0 -9.43478,0c-0.66492,0 -1.07857,-0.5281 -1.07857,-1.06553c0,-1.30495 0,-6.85303 0,-9.2174c0,-0.66184 0.46767,-1.07422 1.209,-1.07422z" fill="url(#color-1)" stroke="#000000" stroke-width="0"/><path d="M176.18067,315.14753c2.18548,0 7.15429,0 8.09941,0c0.30521,0 0.57243,0.3728 0.57243,0.76934c0,1.04895 0,5.85295 0,7.9508c0,0.60492 -0.34647,0.98483 -0.72104,0.98483c-1.03819,0 -5.98508,0 -8.06226,0c-0.5682,0 -0.92167,-0.45127 -0.92167,-0.91052c0,-1.11512 0,-5.85609 0,-7.8765c0,-0.56556 0.39964,-0.91795 1.03313,-0.91795z" fill="none" stroke="#f2ffff" stroke-width="1"/><path d="M176.97653,319.96153h6.04696v3.52174h-6.04696z" fill="url(#color-2)" stroke="none" stroke-width="0"/><path d="M176.97653,316.51671l6.04696,0l0,3.52174h-6.04696z" fill="url(#color-3)" stroke="none" stroke-width="0"/></g></g></svg>