<svg version="1.1" xmlns="http://www.w3.org/2000/svg" xmlns:xlink="http://www.w3.org/1999/xlink" width="16.21428" height="16.21428" viewBox="0,0,16.21428,16.21428"><defs><radialGradient cx="180" cy="320" r="6.10714" gradientUnits="userSpaceOnUse" id="color-1"><stop offset="0" stop-color="#ffffff" stop-opacity="0"/><stop offset="1" stop-color="#ffffff"/></radialGradient><radialGradient cx="180" cy="320" r="6.86154" gradientUnits="userSpaceOnUse" id="color-2"><stop offset="0" stop-color="#ffffff" stop-opacity="0"/><stop offset="1" stop-color="#ffffff"/></radialGradient></defs><g transform="translate(-171.89286,-311.89286)"><g data-paper-data="{&quot;isPaintingLayer&quot;:true}" fill-rule="nonzero" stroke-linecap="butt" stroke-linejoin="miter" stroke-miterlimit="10" stroke-dasharray="" stroke-dashoffset="0" style="mix-blend-mode: normal"><path d="M173.89286,320c0,-3.37288 2.73426,-6.10714 6.10714,-6.10714c3.37288,0 6.10714,2.73426 6.10714,6.10714c0,3.37288 -2.73426,6.10714 -6.10714,6.10714c-3.37288,0 -6.10714,-2.73426 -6.10714,-6.10714z" fill="none" stroke="url(#color-1)" stroke-width="4"/><path d="M175.87037,320c0,-2.28073 1.8489,-4.12963 4.12963,-4.12963c2.28073,0 4.12963,1.8489 4.12963,4.12963c0,2.28073 -1.8489,4.12963 -4.12963,4.12963c-2.28073,0 -4.12963,-1.8489 -4.12963,-4.12963z" fill="url(#color-2)" stroke="#ffffff" stroke-width="0"/></g></g></svg>