<svg version="1.1" xmlns="http://www.w3.org/2000/svg" xmlns:xlink="http://www.w3.org/1999/xlink" width="15.29536" height="15.23318" viewBox="0,0,15.29536,15.23318"><defs><linearGradient x1="176.02095" y1="316.05962" x2="184.05166" y2="324.09033" gradientUnits="userSpaceOnUse" id="color-1"><stop offset="0" stop-color="#267dff"/><stop offset="1" stop-color="#9225ff"/></linearGradient><linearGradient x1="180.0091" y1="320.10218" x2="182.49935" y2="317.61193" gradientUnits="userSpaceOnUse" id="color-2"><stop offset="0" stop-color="#f2f7ff"/><stop offset="1" stop-color="#f2f7ff" stop-opacity="0"/></linearGradient><linearGradient x1="177.57325" y1="322.53803" x2="180.06349" y2="320.04779" gradientUnits="userSpaceOnUse" id="color-3"><stop offset="0" stop-color="#f2f7ff" stop-opacity="0"/><stop offset="1" stop-color="#f2f7ff"/></linearGradient></defs><g transform="translate(-172.33299,-312.43905)"><g data-paper-data="{&quot;isPaintingLayer&quot;:true}" fill-rule="nonzero" stroke-linecap="butt" stroke-linejoin="miter" stroke-miterlimit="10" stroke-dasharray="" stroke-dashoffset="0" style="mix-blend-mode: normal"><path d="M179.18141,327.25078c-1.80846,-1.80846 -5.92007,-5.92007 -6.70215,-6.70214c-0.25255,-0.25255 -0.16518,-0.78216 0.16295,-1.11028c0.868,-0.868 4.84322,-4.84322 6.57916,-6.57916c0.50056,-0.50056 1.10162,-0.52824 1.41159,-0.21829c0.85909,0.85909 4.95256,4.95257 6.67139,6.67139c0.47017,0.47017 0.38924,1.13609 0.00922,1.51611c-0.92274,0.92274 -4.84582,4.84582 -6.51768,6.51769c-0.46799,0.46799 -1.09028,0.4289 -1.61448,-0.09531z" fill="url(#color-1)" stroke="#000000" stroke-width="0"/><path d="M179.30576,326.20688c-1.54537,-1.54537 -5.05885,-5.05885 -5.72715,-5.72714c-0.21581,-0.21582 -0.14116,-0.66838 0.13924,-0.94878c0.74172,-0.74172 4.13866,-4.13866 5.62206,-5.62206c0.42775,-0.42774 0.94137,-0.45139 1.20623,-0.18653c0.73411,0.73411 4.23209,4.23209 5.70088,5.70088c0.40178,0.40178 0.33263,0.97081 0.00789,1.29555c-0.78851,0.78851 -4.14088,4.14088 -5.56952,5.56952c-0.39991,0.39991 -0.93168,0.3665 -1.37963,-0.08145z" fill="none" stroke="#f2ffff" stroke-width="1"/><path d="M182.14702,322.2401l-4.27585,-4.27585l2.49024,-2.49025l4.27585,4.27585z" fill="url(#color-2)" stroke="none" stroke-width="0"/><path d="M179.71117,324.67596l-4.27585,-4.27585l2.49024,-2.49025l4.27585,4.27585z" fill="url(#color-3)" stroke="none" stroke-width="0"/></g></g></svg>