<svg version="1.1" xmlns="http://www.w3.org/2000/svg" xmlns:xlink="http://www.w3.org/1999/xlink" width="11.35715" height="11.35714" viewBox="0,0,11.35715,11.35714"><defs><linearGradient x1="180.00001" y1="325.67857" x2="180.00001" y2="314.32143" gradientUnits="userSpaceOnUse" id="color-1"><stop offset="0" stop-color="#267dff"/><stop offset="1" stop-color="#9225ff"/></linearGradient><linearGradient x1="180.03848" y1="320" x2="176.51674" y2="320" gradientUnits="userSpaceOnUse" id="color-2"><stop offset="0" stop-color="#f2f7ff"/><stop offset="1" stop-color="#f2f7ff" stop-opacity="0"/></linearGradient><linearGradient x1="183.4833" y1="320" x2="179.96156" y2="320" gradientUnits="userSpaceOnUse" id="color-3"><stop offset="0" stop-color="#f2f7ff" stop-opacity="0"/><stop offset="1" stop-color="#f2f7ff"/></linearGradient></defs><g transform="translate(-174.32143,-314.32143)"><g data-paper-data="{&quot;isPaintingLayer&quot;:true}" fill-rule="nonzero" stroke-linecap="butt" stroke-linejoin="miter" stroke-miterlimit="10" stroke-dasharray="" stroke-dashoffset="0" style="mix-blend-mode: normal"><path d="M185.67857,315.53044c0,2.55755 0,8.37224 0,9.47826c0,0.35717 -0.43627,0.66987 -0.90031,0.66987c-1.22753,0 -6.84935,0 -9.30434,0c-0.7079,0 -1.15249,-0.40544 -1.15249,-0.84379c0,-1.21494 0,-7.00399 0,-9.43478c0,-0.66492 0.5281,-1.07857 1.06553,-1.07857c1.30495,0 6.85303,0 9.2174,0c0.66184,0 1.07422,0.46767 1.07422,1.209z" fill="url(#color-1)" stroke="#000000" stroke-width="0"/><path d="M184.85249,316.18066c0,2.18548 0,7.15429 0,8.09941c0,0.30521 -0.3728,0.57243 -0.76934,0.57243c-1.04895,0 -5.85295,0 -7.9508,0c-0.60492,0 -0.98483,-0.34647 -0.98483,-0.72104c0,-1.03819 0,-5.98508 0,-8.06226c0,-0.5682 0.45127,-0.92167 0.91052,-0.92167c1.11512,0 5.85609,0 7.8765,0c0.56556,0 0.91795,0.39964 0.91795,1.03313z" fill="none" stroke="#f2ffff" stroke-width="1"/><path d="M180.03848,316.97652l0,6.04696l-3.52174,0v-6.04696z" fill="url(#color-2)" stroke="none" stroke-width="0"/><path d="M183.4833,316.97652l0,6.04696l-3.52174,0v-6.04696z" fill="url(#color-3)" stroke="none" stroke-width="0"/></g></g></svg>