<svg version="1.1" xmlns="http://www.w3.org/2000/svg" xmlns:xlink="http://www.w3.org/1999/xlink" width="14.46298" height="8.0358" viewBox="0,0,14.46298,8.0358"><g transform="translate(-172.76775,-315.98211)"><g data-paper-data="{&quot;isPaintingLayer&quot;:true}" fill-rule="nonzero" stroke-linejoin="miter" stroke-miterlimit="10" stroke-dasharray="" stroke-dashoffset="0" style="mix-blend-mode: normal"><path d="M180.01576,316.23213c2.86056,0 6.85083,3.74495 6.85083,3.74495c0,0 -3.99027,3.79083 -6.85083,3.79083c-2.86056,0 -6.88235,-3.7679 -6.88235,-3.7679c0,0 4.0218,-3.7679 6.88235,-3.7679z" fill="#ffffff" stroke="#ffffff" stroke-width="0.5" stroke-linecap="butt"/><path d="M186.53326,320.01874c0,0 -3.90822,0.68987 -6.52485,0.12638c-0.58513,-0.12601 -1.22172,-0.24151 -1.64333,-0.452c-1.46374,-0.73078 -1.86072,-1.94756 -1.86072,-1.94756c0,0 0.48977,-0.43577 0.89563,-0.64119c0.91211,-0.46165 1.93937,-0.66393 2.78244,-0.66393c0,0 0.57212,0.00242 1.20534,0.19398c0.58878,0.17811 1.22474,0.53668 1.6474,0.77482c1.15979,0.65347 3.49809,2.60949 3.49809,2.60949z" fill="#f2ffff" stroke="#1e0099" stroke-width="0" stroke-linecap="butt"/><path d="M186.5693,320.0041c0,0 -1.2084,0.97328 -1.69372,1.33739c-0.36583,0.27447 -0.96241,0.65539 -0.96241,0.65539c0,0 0.69194,-1.39436 0.68612,-1.95078c-0.00731,-0.69846 -0.57372,-2.01153 -0.57372,-2.01153c0,0 0.78786,0.54836 1.19381,0.86268c0.43932,0.34016 1.34992,1.10685 1.34992,1.10685z" fill="#b7c9e6" stroke="#1e0099" stroke-width="0" stroke-linecap="butt"/><path d="M185.95388,320.17388h-1.09678" fill="none" stroke="#ffffff" stroke-width="0.5" stroke-linecap="round"/></g></g></svg>