<svg version="1.1" xmlns="http://www.w3.org/2000/svg" xmlns:xlink="http://www.w3.org/1999/xlink" width="11.35715" height="11.35714" viewBox="0,0,11.35715,11.35714"><defs><linearGradient x1="174.32144" y1="319.99999" x2="185.67858" y2="319.99999" gradientUnits="userSpaceOnUse" id="color-1"><stop offset="0" stop-color="#e64500"/><stop offset="1" stop-color="#e66e00"/></linearGradient></defs><g transform="translate(-174.32142,-314.32143)"><g data-paper-data="{&quot;isPaintingLayer&quot;:true}" fill-rule="nonzero" stroke-linecap="butt" stroke-linejoin="miter" stroke-miterlimit="10" stroke-dasharray="" stroke-dashoffset="0" style="mix-blend-mode: normal"><path d="M174.32144,324.46956c0,-2.55755 0,-8.37224 0,-9.47826c0,-0.35717 0.43627,-0.66987 0.90031,-0.66987c1.22753,0 6.84935,0 9.30434,0c0.7079,0 1.15249,0.40544 1.15249,0.84379c0,1.21494 0,7.00399 0,9.43478c0,0.66492 -0.5281,1.07857 -1.06553,1.07857c-1.30495,0 -6.85303,0 -9.2174,0c-0.66184,0 -1.07422,-0.46767 -1.07422,-1.209z" fill="url(#color-1)" stroke="#000000" stroke-width="0"/><path d="M175.14753,323.81934c0,-2.18548 0,-7.15429 0,-8.09941c0,-0.30521 0.3728,-0.57243 0.76934,-0.57243c1.04895,0 5.85295,0 7.9508,0c0.60492,0 0.98483,0.34647 0.98483,0.72104c0,1.03819 0,5.98508 0,8.06226c0,0.5682 -0.45127,0.92167 -0.91052,0.92167c-1.11512,0 -5.85609,0 -7.8765,0c-0.56556,0 -0.91795,-0.39964 -0.91795,-1.03313z" fill="none" stroke="#ffdb7f" stroke-width="1"/><path d="M176.47827,321.64347v-5.08696h7.04348v5.08696z" fill="#fffaf2" stroke="none" stroke-width="0"/></g></g></svg>