<svg version="1.1" xmlns="http://www.w3.org/2000/svg" xmlns:xlink="http://www.w3.org/1999/xlink" width="11.35715" height="11.35716" viewBox="0,0,11.35715,11.35716"><defs><linearGradient x1="180.02994" y1="325.64488" x2="180.02994" y2="314.28774" gradientUnits="userSpaceOnUse" id="color-1"><stop offset="0" stop-color="#e64500"/><stop offset="1" stop-color="#e66e00"/></linearGradient></defs><g transform="translate(-174.35139,-314.28775)"><g data-paper-data="{&quot;isPaintingLayer&quot;:true}" fill-rule="nonzero" stroke-linecap="butt" stroke-linejoin="miter" stroke-miterlimit="10" stroke-dasharray="" stroke-dashoffset="0" style="mix-blend-mode: normal"><path d="M184.49951,325.64488c-2.55755,0 -8.37224,0 -9.47826,0c-0.35717,0 -0.66987,-0.43627 -0.66986,-0.90031c0,-1.22752 0,-6.84935 0,-9.30434c0,-0.7079 0.40544,-1.15249 0.84379,-1.15249c1.21494,0 7.00399,0 9.43478,0c0.66492,0 1.07857,0.5281 1.07857,1.06553c0,1.30495 0,6.85302 0,9.21741c0,0.66184 -0.46767,1.07422 -1.209,1.07422z" fill="url(#color-1)" stroke="#000000" stroke-width="0"/><path d="M183.84929,324.81879c-2.18548,0 -7.15429,0 -8.09941,0c-0.30522,0 -0.57243,-0.3728 -0.57242,-0.76934c0,-1.04895 0,-5.85295 0,-7.95079c0,-0.60492 0.34647,-0.98483 0.72104,-0.98483c1.03819,0 5.98508,0 8.06226,0c0.5682,0 0.92167,0.45128 0.92166,0.91052c0,1.11512 0,5.85609 0,7.8765c0,0.56556 -0.39964,0.91795 -1.03313,0.91795z" fill="none" stroke="#ffdb7f" stroke-width="1"/><path d="M181.67344,323.48804h-5.08695l0,-7.04348h5.08695z" fill="#fffaf2" stroke="none" stroke-width="0"/></g></g></svg>