<svg version="1.1" xmlns="http://www.w3.org/2000/svg" xmlns:xlink="http://www.w3.org/1999/xlink" width="8.10549" height="8.24309" viewBox="0,0,8.10549,8.24309"><g transform="translate(-175.94728,-315.80965)"><g data-paper-data="{&quot;isPaintingLayer&quot;:true}" fill-rule="nonzero" stroke-linecap="butt" stroke-linejoin="miter" stroke-miterlimit="10" stroke-dasharray="" stroke-dashoffset="0" style="mix-blend-mode: normal"><path d="M175.94728,323.45143c0,-1.67002 0,-6.29409 0,-7.08571c0,-0.2262 0.33429,-0.41846 0.68417,-0.41846c0.94642,0 5.34418,0 6.88572,0c0.33541,0 0.5356,0.19227 0.5356,0.41846c0,0.78715 0,5.36359 0,7.05714c0,0.39229 -0.26884,0.62989 -0.56417,0.62989c-0.88871,0 -5.42313,0 -7,0c-0.339,0 -0.54131,-0.22609 -0.54131,-0.60131z" fill="#0052cc" stroke="#ffdb7f" stroke-width="0"/><path d="M176.70572,322.80552c0,-1.35749 0,-5.1162 0,-5.75968c0,-0.18387 0.27174,-0.34015 0.55614,-0.34015c0.7693,0 4.34405,0 5.5971,0c0.27264,0 0.43537,0.15628 0.43537,0.34015c0,0.63984 0,4.35983 0,5.73645c0,0.31887 -0.21853,0.51201 -0.4586,0.51201c-0.7224,0 -4.40823,0 -5.69,0c-0.27557,0 -0.44002,-0.18379 -0.44002,-0.48879z" fill="none" stroke="#e6f0ff" stroke-width="0.5"/><text transform="translate(177.28782,321.62732) scale(0.13561,0.13561)" font-size="40" xml:space="preserve" fill="#e6f0ff" fill-rule="nonzero" stroke="none" stroke-width="1" stroke-linecap="butt" stroke-linejoin="miter" stroke-miterlimit="10" stroke-dasharray="" stroke-dashoffset="0" font-family="Sans Serif" font-weight="normal" text-anchor="start" style="mix-blend-mode: normal"><tspan x="0" dy="0">点</tspan></text></g></g></svg>