<svg version="1.1" xmlns="http://www.w3.org/2000/svg" xmlns:xlink="http://www.w3.org/1999/xlink" width="238.23574" height="366.84535" viewBox="0,0,238.23574,366.84535"><defs><linearGradient x1="180" y1="147.32733" x2="180" y2="492.67267" gradientUnits="userSpaceOnUse" id="color-1"><stop offset="0" stop-color="#e5f7ff"/><stop offset="1" stop-color="#e6ffec"/></linearGradient><linearGradient x1="180" y1="147.32733" x2="180" y2="492.67267" gradientUnits="userSpaceOnUse" id="color-2"><stop offset="0" stop-color="#005a80"/><stop offset="1" stop-color="#00800c"/></linearGradient><linearGradient x1="148.66541" y1="208.2" x2="148.66541" y2="234.99584" gradientUnits="userSpaceOnUse" id="color-3"><stop offset="0" stop-color="#005a80"/><stop offset="1" stop-color="#00800c"/></linearGradient><linearGradient x1="236.16541" y1="208.2" x2="236.16541" y2="234.99584" gradientUnits="userSpaceOnUse" id="color-4"><stop offset="0" stop-color="#005a80"/><stop offset="1" stop-color="#00800c"/></linearGradient><linearGradient x1="288.36787" y1="128.32732" x2="288.36787" y2="147.32732" gradientUnits="userSpaceOnUse" id="color-5"><stop offset="0" stop-color="#e6ffec"/><stop offset="1" stop-color="#e5f7ff"/></linearGradient><linearGradient x1="288.36787" y1="128.32732" x2="288.36787" y2="147.32732" gradientUnits="userSpaceOnUse" id="color-6"><stop offset="0" stop-color="#00800c"/><stop offset="1" stop-color="#005a80"/></linearGradient></defs><g transform="translate(-60.88213,-127.07731)"><g data-paper-data="{&quot;isPaintingLayer&quot;:true}" fill-rule="nonzero" stroke-linejoin="miter" stroke-miterlimit="10" stroke-dasharray="" stroke-dashoffset="0" style="mix-blend-mode: normal"><path d="M62.13213,492.67267v-345.34535h235.73574v345.34535z" fill="url(#color-1)" stroke="url(#color-2)" stroke-width="2.5" stroke-linecap="butt"/><text transform="translate(156.775,181.69063) scale(0.58062,0.58062)" font-size="40" xml:space="preserve" fill="#808080" fill-rule="nonzero" stroke="none" stroke-width="1" stroke-linecap="butt" stroke-linejoin="miter" stroke-miterlimit="10" stroke-dasharray="" stroke-dashoffset="0" font-family="&quot;Keifont&quot;, Sans Serif" font-weight="normal" text-anchor="start" style="mix-blend-mode: normal"><tspan x="0" dy="0">設定</tspan></text><path d="M113.83081,231.86073c0,-5.87189 0,-18.20297 0,-21.16872c0,-1.25839 1.88529,-2.49202 4.04617,-2.49202c7.25125,0 47.98094,0 61.36248,0c2.67787,0 4.26054,1.38569 4.26054,2.75997c0,2.95926 0,14.39713 0,20.36484c0,2.21092 -1.44482,3.67103 -3.1887,3.67103c-6.82922,0 -50.84586,0 -63.23819,0c-2.05668,0 -3.2423,-1.22625 -3.2423,-3.13511z" fill="#b3b3b3" stroke="url(#color-3)" stroke-width="0" stroke-linecap="butt"/><text transform="translate(70,224.85537) scale(0.36901,0.36901)" font-size="40" xml:space="preserve" fill="#808080" fill-rule="nonzero" stroke="none" stroke-width="1" stroke-linecap="butt" stroke-linejoin="miter" stroke-miterlimit="10" stroke-dasharray="" stroke-dashoffset="0" font-family="&quot;Keifont&quot;, Sans Serif" font-weight="normal" text-anchor="start" style="mix-blend-mode: normal"><tspan x="0" dy="0">BGM</tspan></text><path d="M201.33081,231.86073c0,-5.87189 0,-18.20297 0,-21.16871c0,-1.25839 1.8853,-2.49202 4.04618,-2.49202c7.25126,0 47.98094,0 61.36248,0c2.67787,0 4.26054,1.38568 4.26054,2.75997c0,2.95926 0,14.39713 0,20.36484c0,2.21092 -1.44483,3.67103 -3.18871,3.67103c-6.82922,0 -50.84585,0 -63.23818,0c-2.05668,0 -3.2423,-1.22625 -3.2423,-3.13511z" fill="#ff9900" stroke="url(#color-4)" stroke-width="0" stroke-linecap="butt"/><text transform="translate(133.3302,227.78047) scale(0.39141,0.39141)" font-size="40" xml:space="preserve" fill="#400080" fill-rule="nonzero" stroke="none" stroke-width="1" stroke-linecap="butt" stroke-linejoin="miter" stroke-miterlimit="10" stroke-dasharray="" stroke-dashoffset="0" font-family="&quot;Keifont&quot;, Sans Serif" font-weight="normal" text-anchor="start" style="mix-blend-mode: normal"><tspan x="0" dy="0">MP3</tspan></text><text transform="translate(219.79052,227.78048) scale(0.39141,0.39141)" font-size="40" xml:space="preserve" fill="#400080" fill-rule="nonzero" stroke="none" stroke-width="1" stroke-linecap="butt" stroke-linejoin="miter" stroke-miterlimit="10" stroke-dasharray="" stroke-dashoffset="0" font-family="&quot;Keifont&quot;, Sans Serif" font-weight="normal" text-anchor="start" style="mix-blend-mode: normal"><tspan x="0" dy="0">MIDI</tspan></text><text transform="translate(131.66354,226.1138) scale(0.39141,0.39141)" font-size="40" xml:space="preserve" fill="#ffffff" fill-rule="nonzero" stroke="none" stroke-width="1" stroke-linecap="butt" stroke-linejoin="miter" stroke-miterlimit="10" stroke-dasharray="" stroke-dashoffset="0" font-family="&quot;Keifont&quot;, Sans Serif" font-weight="normal" text-anchor="start" style="mix-blend-mode: normal"><tspan x="0" dy="0">MP3</tspan></text><text transform="translate(218.12386,226.11381) scale(0.39141,0.39141)" font-size="40" xml:space="preserve" fill="#ffffff" fill-rule="nonzero" stroke="none" stroke-width="1" stroke-linecap="butt" stroke-linejoin="miter" stroke-miterlimit="10" stroke-dasharray="" stroke-dashoffset="0" font-family="&quot;Keifont&quot;, Sans Serif" font-weight="normal" text-anchor="start" style="mix-blend-mode: normal"><tspan x="0" dy="0">MIDI</tspan></text><path d="M278.86787,147.32732v-19h19v19z" fill="url(#color-5)" stroke="url(#color-6)" stroke-width="2.5" stroke-linecap="butt"/><path d="M293.84444,143.47778l-11.61111,-11.61111" fill="none" stroke="#808080" stroke-width="2.5" stroke-linecap="round"/><path d="M294.17343,132.02176l-11.61111,11.61111" fill="none" stroke="#808080" stroke-width="2.5" stroke-linecap="round"/></g></g></svg>