<svg version="1.1" xmlns="http://www.w3.org/2000/svg" xmlns:xlink="http://www.w3.org/1999/xlink" width="650.66201" height="23.83334" viewBox="0,0,650.66201,23.83334"><g transform="translate(-168.41899,-308.08333)"><g data-paper-data="{&quot;isPaintingLayer&quot;:true}" fill-rule="nonzero" stroke-linejoin="miter" stroke-miterlimit="10" stroke-dasharray="" stroke-dashoffset="0" style="mix-blend-mode: normal"><path d="M180.33566,331.91667c-6.5814,0 -11.91667,-5.33528 -11.91667,-11.91667c0,-6.5814 5.33528,-11.91667 11.91667,-11.91667c6.5814,0 11.91667,5.33528 11.91667,11.91667c0,6.58139 -5.33527,11.91667 -11.91667,11.91667z" fill="#ad00ff" stroke="none" stroke-width="0" stroke-linecap="butt"/><path d="M180.33566,330.08715c-5.57097,0 -10.08715,-4.51617 -10.08715,-10.08715c0,-5.57097 4.51617,-10.08715 10.08715,-10.08715c5.57097,0 10.08715,4.51617 10.08715,10.08715c0,5.57097 -4.51617,10.08715 -10.08715,10.08715z" fill="#ffffff" stroke="none" stroke-width="0" stroke-linecap="butt"/><path d="M814.581,319.98967h-9.02368h-40.12357h-44.35h-54.66905h-53.79083h-68.06188h-44.56955h-46.98465h-40.61757h-49.6193h-61.47524h-61.25569h-46.21621" fill="#ff0000" stroke="#8000ff" stroke-width="9" stroke-linecap="round"/><path d="M814.581,319.99435h-9.07312h-40.3434h-44.59298h-54.96857h-54.08554h-68.43477h-44.81373h-47.24207h-40.8401h-49.89115h-61.81205h-61.59129h-46.46942" fill="#ff0000" stroke="#ffffff" stroke-width="6.5" stroke-linecap="round"/></g></g></svg>